<svg xmlns="http://www.w3.org/2000/svg" viewBox="0 0 100 100">
  <defs>
    <radialGradient id="bg2" cx="50%" cy="40%" r="50%">
      <stop offset="0%" stop-color="#1A1A2E"/>
      <stop offset="100%" stop-color="#0B0B0F"/>
    </radialGradient>
    <radialGradient id="glow2" cx="50%" cy="40%" r="30%">
      <stop offset="0%" stop-color="#FFD93D" stop-opacity="0.25"/>
      <stop offset="100%" stop-color="#FFD93D" stop-opacity="0"/>
    </radialGradient>
  </defs>
  <circle cx="50" cy="50" r="48" fill="url(#bg2)" stroke="#FFD93D" stroke-width="1.5"/>
  <circle cx="50" cy="40" r="20" fill="url(#glow2)"/>
  <!-- Suspect face -->
  <ellipse cx="50" cy="44" rx="16" ry="18" fill="#C4A882"/>
  <!-- Eyes (shifty) -->
  <ellipse cx="44" cy="40" rx="3.5" ry="2.5" fill="#FFF"/>
  <ellipse cx="56" cy="40" rx="3.5" ry="2.5" fill="#FFF"/>
  <circle cx="45" cy="40" r="1.8" fill="#4A3520"/>
  <circle cx="55" cy="40" r="1.8" fill="#4A3520"/>
  <!-- Sweat drip -->
  <path d="M58 35 Q60 38 58 41" fill="none" stroke="#2EFFEA" stroke-width="1" opacity="0.5"/>
  <!-- Eyebrows (worried) -->
  <line x1="40" y1="35" x2="48" y2="37" stroke="#4A3520" stroke-width="2"/>
  <line x1="52" y1="37" x2="60" y2="35" stroke="#4A3520" stroke-width="2"/>
  <!-- Mouth (nervous) -->
  <path d="M45 50 Q50 48 55 50" fill="none" stroke="#8B6F5A" stroke-width="1.5"/>
  <!-- Messy hair -->
  <path d="M30 35 Q35 22 50 25 Q65 22 70 35" fill="none" stroke="#3A2515" stroke-width="3"/>
  <path d="M33 33 Q38 20 50 23 Q62 20 67 33" fill="none" stroke="#4A3520" stroke-width="2"/>
</svg>
